<svg>
<symbol id="search" xmlns="http://www.w3.org/2000/svg"  viewBox="0 0 24 24">
	<path d="M0 0h24v24H0z" fill="none" />
	<path fill="currentColor" d="m19.6 21l-6.3-6.3q-.75.6-1.725.95T9.5 16q-2.725 0-4.612-1.888T3 9.5t1.888-4.612T9.5 3t4.613 1.888T16 9.5q0 1.1-.35 2.075T14.7 13.3l6.3 6.3zM9.5 14q1.875 0 3.188-1.312T14 9.5t-1.312-3.187T9.5 5T6.313 6.313T5 9.5t1.313 3.188T9.5 14" />
</symbol>
<symbol id="basket" xmlns="http://www.w3.org/2000/svg"  viewBox="0 0 24 24">
	<path d="M0 0h24v24H0z" fill="none" />
	<path fill="currentColor" d="M5.588 21.413Q5 20.825 5 20t.588-1.412T7 18t1.413.588T9 20t-.587 1.413T7 22t-1.412-.587m10 0Q15 20.825 15 20t.588-1.412T17 18t1.413.588T19 20t-.587 1.413T17 22t-1.412-.587M6.15 6l2.4 5h7l2.75-5zM5.2 4h14.75q.575 0 .875.513t.025 1.037l-3.55 6.4q-.275.5-.737.775T15.55 13H8.1L7 15h12v2H7q-1.125 0-1.7-.987t-.05-1.963L6.6 11.6L3 4H1V2h3.25zm3.35 7h7z" />
</symbol>
<symbol id="logo" xmlns="http://www.w3.org/2000/svg"  viewBox="0 0 24 24">
	<path d="M0 0h24v24H0z" fill="none" />
	<path fill="currentColor" d="M16 17q-.425 0-.712-.288T15 16V8q0-.425.288-.712T16 7h1q.425 0 .713.288T18 8v8q0 .425-.288.713T17 17zm-9 0q-.425 0-.712-.288T6 16V8q0-.425.288-.712T7 7h1q.425 0 .713.288T9 8v8q0 .425-.288.713T8 17zm13.288 4.713Q20 21.425 20 21V3q0-.425.288-.712T21 2t.713.288T22 3v18q0 .425-.288.713T21 22t-.712-.288M3 22q-.425 0-.712-.288T2 21V3q0-.425.288-.712T3 2t.713.288T4 3v18q0 .425-.288.713T3 22" />
</symbol>
 <symbol id="location" xmlns="http://www.w3.org/2000/svg" viewBox="0 0 24 24">
	<path d="M0 0h24v24H0z" fill="none" />
	<path fill="currentColor" d="M13.413 11.413Q14 10.825 14 10t-.587-1.412T12 8t-1.412.588T10 10t.588 1.413T12 12t1.413-.587M12 19.35q3.05-2.8 4.525-5.087T18 10.2q0-2.725-1.737-4.462T12 4T7.738 5.738T6 10.2q0 1.775 1.475 4.063T12 19.35M12 22q-4.025-3.425-6.012-6.362T4 10.2q0-3.75 2.413-5.975T12 2t5.588 2.225T20 10.2q0 2.5-1.987 5.438T12 22m0-12" />
</symbol>
<symbol id="call" xmlns="http://www.w3.org/2000/svg"  viewBox="0 0 24 24">
	<path d="M0 0h24v24H0z" fill="none" />
	<path fill="currentColor" d="M19.95 21q-3.125 0-6.175-1.362t-5.55-3.863t-3.862-5.55T3 4.05q0-.45.3-.75t.75-.3H8.1q.35 0 .625.238t.325.562l.65 3.5q.05.4-.025.675T9.4 8.45L6.975 10.9q.5.925 1.187 1.787t1.513 1.663q.775.775 1.625 1.438T13.1 17l2.35-2.35q.225-.225.588-.337t.712-.063l3.45.7q.35.1.575.363T21 15.9v4.05q0 .45-.3.75t-.75.3" />
</symbol>
<symbol id="up" xmlns="http://www.w3.org/2000/svg"  viewBox="0 0 24 24">
	<path d="M0 0h24v24H0z" fill="none" />
	<path fill="currentColor" d="m12 10.8l-3.9 3.9q-.275.275-.7.275t-.7-.275t-.275-.7t.275-.7l4.6-4.6q.3-.3.7-.3t.7.3l4.6 4.6q.275.275.275.7t-.275.7t-.7.275t-.7-.275z" />
</symbol>
<symbol id="hamburger-menu" xmlns="http://www.w3.org/2000/svg"  viewBox="0 0 24 24">
	<path d="M0 0h24v24H0z" fill="none" />
	<path fill="currentColor" d="M4 18q-.425 0-.712-.288T3 17t.288-.712T4 16h16q.425 0 .713.288T21 17t-.288.713T20 18zm0-5q-.425 0-.712-.288T3 12t.288-.712T4 11h16q.425 0 .713.288T21 12t-.288.713T20 13zm0-5q-.425 0-.712-.288T3 7t.288-.712T4 6h16q.425 0 .713.288T21 7t-.288.713T20 8z" />
</symbol>
<symbol id="close" xmlns="http://www.w3.org/2000/svg" viewBox="0 0 24 24">
	<path d="M0 0h24v24H0z" fill="none" />
	<path fill="currentColor" d="m12 13.4l-2.917 2.925q-.277.275-.704.275t-.704-.275q-.275-.275-.275-.7t.275-.7L10.6 12L7.675 9.108Q7.4 8.831 7.4 8.404t.275-.704q.275-.275.7-.275t.7.275L12 10.625L14.892 7.7q.277-.275.704-.275t.704.275q.3.3.3.713t-.3.687L13.375 12l2.925 2.917q.275.277.275.704t-.275.704q-.3.3-.712.3t-.688-.3z" />
</symbol>
<symbol id="dropDown" xmlns="http://www.w3.org/2000/svg"  viewBox="0 0 24 24">
	<path d="M0 0h24v24H0z" fill="none" />
	<path fill="currentColor" d="M4 17q-.425 0-.712-.288T3 16t.288-.712T4 15h12q.425 0 .713.288T17 16t-.288.713T16 17zm0-4q-.425 0-.712-.288T3 12t.288-.712T4 11h12q.425 0 .713.288T17 12t-.288.713T16 13zm0-4q-.425 0-.712-.288T3 8t.288-.712T4 7h12q.425 0 .713.288T17 8t-.288.713T16 9zm16 8q-.425 0-.712-.288T19 16t.288-.712T20 15t.713.288T21 16t-.288.713T20 17m0-4q-.425 0-.712-.288T19 12t.288-.712T20 11t.713.288T21 12t-.288.713T20 13m0-4q-.425 0-.712-.288T19 8t.288-.712T20 7t.713.288T21 8t-.288.713T20 9" />
</symbol>
<symbol id="chevron-right" xmlns="http://www.w3.org/2000/svg"  viewBox="0 0 24 24">
	<path d="M0 0h24v24H0z" fill="none" />
	<path fill="currentColor" d="M12.6 12L8.7 8.1q-.275-.275-.275-.7t.275-.7t.7-.275t.7.275l4.6 4.6q.15.15.213.325t.062.375t-.062.375t-.213.325l-4.6 4.6q-.275.275-.7.275t-.7-.275t-.275-.7t.275-.7z" />
</symbol>
<symbol id="chevron-left" xmlns="http://www.w3.org/2000/svg"  viewBox="0 0 24 24">
	<path d="M0 0h24v24H0z" fill="none" />
	<path fill="currentColor" d="m10.8 12l3.9 3.9q.275.275.275.7t-.275.7t-.7.275t-.7-.275l-4.6-4.6q-.15-.15-.212-.325T8.425 12t.063-.375t.212-.325l4.6-4.6q.275-.275.7-.275t.7.275t.275.7t-.275.7z" />
</symbol>
<symbol id="express" xmlns="http://www.w3.org/2000/svg"  viewBox="0 0 24 24">
	<path d="M0 0h24v24H0z" fill="none" />
	<path fill="currentColor" d="M4.875 19.125Q4 18.25 4 17H2.725q-.425 0-.713-.288T1.725 16t.288-.712t.712-.288h2.05q.425-.475 1-.737T7 14t1.225.263t1 .737H13.4l2.1-9H5.75q-.425 0-.712-.288T4.75 5t.288-.712T5.75 4h11q.5 0 .8.375t.175.85L17.075 8H19q.475 0 .9.213t.7.587l1.875 2.475q.275.35.35.763t0 .837L22.15 16.2q-.075.35-.35.575t-.625.225H20q0 1.25-.875 2.125T17 20t-2.125-.875T14 17h-4q0 1.25-.875 2.125T7 20t-2.125-.875M15.925 13h4.825l.1-.525L19 10h-2.375zm-2.475 1.825l.163-.725q.162-.725.412-1.775q.075-.325.15-.6t.125-.55l.163-.725q.162-.725.412-1.775t.413-1.775l.162-.725L15.5 6l-2.1 9zm-11.7-1.5q-.425 0-.712-.287t-.288-.713t.288-.712t.712-.288h3.5q.425 0 .713.288t.287.712t-.288.713t-.712.287zm2-3.65q-.425 0-.712-.288t-.288-.712t.288-.712t.712-.288h4.5q.425 0 .713.288t.287.712t-.288.713t-.712.287zM7 18q.425 0 .713-.288T8 17t-.288-.712T7 16t-.712.288T6 17t.288.713T7 18m10 0q.425 0 .713-.288T18 17t-.288-.712T17 16t-.712.288T16 17t.288.713T17 18" />
</symbol>
<symbol id="payment" xmlns="http://www.w3.org/2000/svg"  viewBox="0 0 24 24">
	<path d="M0 0h24v24H0z" fill="none" />
	<path fill="currentColor" d="M4 8h16V6H4zM2 6q0-.825.588-1.412T4 4h16q.825 0 1.413.588T22 6v5q0 .425-.288.713T21 12H4v6h3.1q.425 0 .713.288T8.1 19t-.288.713T7.1 20H4q-.825 0-1.412-.587T2 18zm2 0v12v-3.262v1.587zm10.95 15.6q-.2 0-.375-.075t-.325-.225l-2.85-2.85q-.275-.275-.288-.687t.288-.713q.275-.275.688-.275t.712.275l2.15 2.1l4.925-4.925q.3-.3.713-.287t.712.312q.275.3.288.7t-.288.7l-5.65 5.65q-.15.15-.325.225t-.375.075" />
</symbol>

<symbol id="support" xmlns="http://www.w3.org/2000/svg"  viewBox="0 0 24 24">
	<path d="M0 0h24v24H0z" fill="none" />
	<path fill="currentColor" d="M11 21v-2h8v-7.1q0-2.925-2.037-4.962T12 4.9T7.038 6.938T5 11.9V18H4q-.825 0-1.412-.587T2 16v-2q0-.525.263-.987T3 12.275l.075-1.325q.2-1.7.988-3.15t1.975-2.525T8.762 3.6T12 3t3.225.6t2.725 1.663t1.975 2.512t1 3.15l.075 1.3q.475.225.738.675t.262.95v2.3q0 .5-.262.95t-.738.675V19q0 .825-.587 1.413T19 21zm-2.713-7.287Q8 13.425 8 13t.288-.712T9 12t.713.288T10 13t-.288.713T9 14t-.712-.288m6 0Q14 13.426 14 13t.288-.712T15 12t.713.288T16 13t-.288.713T15 14t-.712-.288M6.025 12.45Q5.85 9.8 7.625 7.9T12.05 6q2.225 0 3.913 1.413T18 11.025Q15.725 11 13.813 9.8t-2.938-3.25q-.4 2-1.687 3.563T6.025 12.45" />
</symbol>

<symbol id="return" xmlns="http://www.w3.org/2000/svg"  viewBox="0 0 24 24">
	<path d="M0 0h24v24H0z" fill="none" />
	<path fill="currentColor" d="m12 16l1.4-1.4l-1.575-1.6H16v-2h-4.175L13.4 9.4L12 8l-4 4zm-7 5q-.825 0-1.412-.587T3 19V5q0-.825.588-1.412T5 3h4.2q.325-.9 1.088-1.45T12 1t1.713.55T14.8 3H19q.825 0 1.413.588T21 5v14q0 .825-.587 1.413T19 21zm0-2h14V5H5zm7.538-14.962q.212-.213.212-.538t-.213-.537T12 2.75t-.537.213t-.213.537t.213.538t.537.212t.538-.213M5 19V5z" />
</symbol>
<symbol id="original" xmlns="http://www.w3.org/2000/svg"  viewBox="0 0 24 24">
	<path d="M0 0h24v24H0z" fill="none" />
	<path fill="currentColor" d="M16.875 7.125Q16 6.25 16 5t.875-2.125T19 2t2.125.875T22 5t-.875 2.125T19 8t-2.125-.875M8.1 21.213q-1.825-.788-3.175-2.138T2.788 15.9T2 12t.788-3.9t2.137-3.175T8.1 2.788T12 2q.45 0 .9.05t.875.125q.4.075.588.438t.037.737q-.15.4-.525.588t-.8.137q-.275-.05-.537-.062T12 4Q8.65 4 6.325 6.325T4 12t2.325 5.675T12 20t5.675-2.325T20 12q0-.275-.012-.537t-.063-.538q-.05-.425.138-.8t.587-.525t.75.038t.425.587q.075.425.125.875t.05.9q0 2.075-.788 3.9t-2.137 3.175t-3.175 2.138T12 22t-3.9-.788m2.5-7.462l-2.15-2.125q-.275-.275-.687-.275t-.713.3q-.275.275-.275.7t.275.7l2.825 2.85q.3.3.7.3t.7-.3l5.225-5.225q.35-.35.3-.738t-.325-.662t-.663-.312t-.737.312z" />
</symbol>

</svg>