<?xml version="1.0" ?>
<!DOCTYPE svg  PUBLIC '-//W3C//DTD SVG 1.1//EN'  'http://www.w3.org/Graphics/SVG/1.1/DTD/svg11.dtd'>
<!-- Uploaded to: SVG Repo, www.svgrepo.com, Generator: SVG Repo Mixer Tools -->
<svg fill="#000000" width="800px" height="800px" viewBox="0 0 512 512" enable-background="new 0 0 512 512" id="flashlight" version="1.1" xml:space="preserve" xmlns="http://www.w3.org/2000/svg" xmlns:xlink="http://www.w3.org/1999/xlink">
<g>
<path d="M314.045,126.263c-6.958-7.681-18.872-8.272-26.559-1.312l-38.994,35.32c-0.012,0.01-0.02,0.023-0.03,0.033   c-0.292,0.268-0.554,0.564-0.794,0.881c-0.001,0-0.001,0-0.001,0l0,0c-0.063,0.083-0.121,0.167-0.181,0.252l0,0v0.001   c-0.191,0.275-0.363,0.563-0.513,0.867c-0.027,0.055-0.062,0.106-0.087,0.162c0,0,0,0,0,0.001l0,0   c-0.131,0.285-0.244,0.581-0.335,0.887l-9.78,32.972c-0.107-0.009-0.213-0.026-0.32-0.032c-3.226-0.175-6.317,0.947-8.706,3.113   l-14.78,13.387c-4.938,4.472-5.315,12.126-0.844,17.063l1.058,1.167L71.323,359.516l-11.65,10.552   c-7.278,6.592-7.837,17.876-1.245,25.154l41.649,45.98c3.192,3.526,7.568,5.598,12.319,5.832c0.301,0.015,0.6,0.022,0.899,0.022   c4.425,0,8.633-1.619,11.935-4.61l11.649-10.552l141.857-128.49l1.058,1.168c2.166,2.392,5.135,3.797,8.357,3.957   c0.204,0.01,0.407,0.014,0.61,0.014c3.002,0,5.857-1.098,8.096-3.127l14.779-13.387c2.392-2.166,3.797-5.134,3.956-8.355   c0.006-0.108-0.002-0.215,0-0.323l33.707-6.468l0,0c0.005,0,0.01-0.002,0.016-0.002l0.001-0.001l0.053-0.011   c0.347-0.065,0.681-0.166,1.007-0.282c0-0.001,0-0.001,0.001-0.001s0.001,0,0.001,0c0.101-0.036,0.196-0.081,0.295-0.121   c0.26-0.107,0.51-0.23,0.752-0.367l0,0c0,0,0.001,0,0.001-0.001c0.09-0.051,0.18-0.099,0.267-0.153h0.001c0,0,0,0,0.001,0   c0.316-0.201,0.618-0.422,0.896-0.672c0.013-0.01,0.026-0.017,0.037-0.027l38.997-35.321c7.683-6.96,8.272-18.874,1.313-26.559   L314.045,126.263z M116.168,432.439c-0.853,0.771-1.919,1.165-3.105,1.11c-1.148-0.057-2.207-0.558-2.979-1.41l-41.648-45.98   c-0.772-0.853-1.167-1.956-1.11-3.106c0.057-1.148,0.559-2.207,1.411-2.979l6.647-6.021l47.432,52.367L116.168,432.439z    M132.82,417.356l-23.716-26.183L85.389,364.99l136.853-123.959l26.627,29.396l7.738,8.543l13.067,14.428L132.82,417.356z    M308.806,270.906l-60.321-66.596l7.596-25.605l78.304,86.449l0.652,0.721L308.806,270.906z M382.563,229.918l-33.992,30.789   l-43.006-47.48l-43.007-47.48l33.991-30.789c2.168-1.963,5.529-1.798,7.491,0.369l78.892,87.101   C384.895,224.594,384.729,227.955,382.563,229.918z"/>
<path d="M224.901,268.483c-1.202-1.327-2.882-2.122-4.669-2.211c-1.816-0.097-3.537,0.537-4.865,1.739l-35.721,32.355   c-2.764,2.503-2.975,6.771-0.473,9.534l17.718,19.562c1.202,1.328,2.882,2.123,4.669,2.211c0.112,0.006,0.224,0.008,0.334,0.008   c1.672,0,3.287-0.619,4.531-1.746l35.722-32.355c2.763-2.504,2.974-6.771,0.472-9.535L224.901,268.483z"/>
<path d="M367.288,156.099c1.333,1.472,3.165,2.219,5.006,2.219c1.615,0,3.236-0.577,4.528-1.747l41.674-37.747   c2.763-2.503,2.975-6.771,0.472-9.534c-2.502-2.762-6.77-2.975-9.534-0.472l-41.674,37.747   C364.997,149.068,364.786,153.336,367.288,156.099z"/>
<path d="M344.265,129.738c0.855,0.359,1.742,0.529,2.616,0.529c2.635,0,5.139-1.551,6.225-4.131l21.817-51.822   c1.446-3.436-0.166-7.395-3.602-8.841c-3.436-1.445-7.394,0.165-8.841,3.602l-21.818,51.822   C339.217,124.333,340.829,128.292,344.265,129.738z"/>
<path d="M457.87,161.028c-1.101-3.563-4.886-5.556-8.441-4.458l-53.722,16.599c-3.563,1.101-5.559,4.88-4.457,8.441   c0.895,2.899,3.564,4.759,6.446,4.759c0.66,0,1.331-0.097,1.994-0.302l53.722-16.598   C456.975,168.369,458.971,164.589,457.87,161.028z"/>
<path d="M82.313,326.441c1.634,0,3.274-0.591,4.571-1.785l6.082-5.602c2.742-2.526,2.918-6.797,0.391-9.539   c-2.527-2.743-6.796-2.916-9.538-0.391l-6.081,5.602c-2.742,2.525-2.918,6.796-0.392,9.538   C78.678,325.709,80.492,326.441,82.313,326.441z"/>
<path d="M105.986,304.636c1.635,0,3.275-0.591,4.572-1.785l40.117-36.952c2.743-2.526,2.918-6.797,0.393-9.539   c-2.527-2.742-6.796-2.916-9.539-0.391l-40.117,36.952c-2.742,2.526-2.918,6.796-0.392,9.538   C102.351,303.904,104.166,304.636,105.986,304.636z"/>
<path d="M163.541,251.623c1.635,0,3.275-0.591,4.572-1.785l13.209-12.166c2.742-2.525,2.917-6.796,0.391-9.538   c-2.525-2.743-6.797-2.917-9.538-0.392l-13.208,12.166c-2.743,2.525-2.918,6.796-0.393,9.538   C159.905,250.892,161.721,251.623,163.541,251.623z"/>
<path d="M236.228,361.949l-61.018,54.755c-2.775,2.489-3.006,6.757-0.517,9.532c1.332,1.485,3.176,2.242,5.026,2.242   c1.604,0,3.216-0.569,4.505-1.726l61.021-54.756c2.774-2.49,3.005-6.758,0.516-9.533   C243.27,359.691,239.004,359.459,236.228,361.949z"/>
<path d="M267.206,333.174l-11.926,10.701c-2.774,2.49-3.006,6.758-0.517,9.532c1.333,1.485,3.176,2.242,5.026,2.242   c1.604,0,3.217-0.569,4.505-1.726l11.926-10.701c2.775-2.49,3.006-6.758,0.518-9.531   C274.249,330.916,269.98,330.684,267.206,333.174z"/>
</g>
</svg>